<svg xmlns="http://www.w3.org/2000/svg" viewBox="0 0 512 512"><path fill="#f5f5f5" d="M0 136.18h512v47.923H0z"/><path fill="#73af00" d="M0 184.09h512v47.923H0z"/><path fill="#f5f5f5" d="M0 232.01h512v47.923H0z"/><path fill="#73af00" d="M0 279.93h512v47.923H0z"/><path fill="#f5f5f5" d="M0 327.86h512v47.923H0z"/><g fill="#73af00"><path d="M473.655 88.301H38.346c-21.177 0-38.345 17.167-38.345 38.345v9.525h511.998v-9.562c-.02-21.16-17.179-38.308-38.344-38.308zM512 375.777H.001v9.628c0 20.513 16.108 37.263 36.364 38.294h439.27c20.245-1.03 36.344-17.761 36.363-38.256v-9.665l.002-.001z"/></g><path d="M.001 126.646v96.57a8.827 8.827 0 0 0 8.826 8.797h238.344a8.829 8.829 0 0 0 8.828-8.828V97.078c0-4.558-3.456-8.309-7.891-8.777H38.346c-21.177 0-38.345 17.167-38.345 38.345z" fill="#ff4b55"/><g fill="#f5f5f5"><path d="M135.749 220.664h-14.233a3.093 3.093 0 0 1-2.902-2.02l-4.583-12.372a38.561 38.561 0 0 1-2.362-15.115l1.596-35.735a2.246 2.246 0 0 1 4.49.101v16.273a.824.824 0 1 0 1.647.041l1.279-25.948a2.204 2.204 0 0 1 4.401.029l.883 24.191a.828.828 0 1 0 1.655-.015l.531-26.881a2.177 2.177 0 1 1 4.352-.062l1.312 27.17a.836.836 0 0 0 1.671-.015l.658-21.052a2.204 2.204 0 0 1 3.151-1.921 2.203 2.203 0 0 1 1.252 1.86l1.532 25.838 4.099 11.957c.231.671 1.174.684 1.418.018 1.161-3.169 3.796-9.087 8.024-11.693a2.151 2.151 0 0 1 2.413.126 2.164 2.164 0 0 1 .271 3.217c-2.061 2.194-5.066 6.805-4.849 14.912a4.647 4.647 0 0 1-.881 2.879l-11.55 15.778a11.712 11.712 0 0 0-2.157 5.366l-.052.387a3.09 3.09 0 0 1-3.066 2.686zM128.671 100.34l2.319 6.954 7.33.056c.568.004.803.729.346 1.067l-5.897 4.354 2.211 6.989c.171.542-.445.99-.907.659l-5.964-4.263-5.964 4.263c-.462.33-1.078-.118-.907-.659l2.211-6.989-5.897-4.354c-.457-.338-.222-1.063.346-1.067l7.33-.056 2.319-6.954c.181-.54.944-.54 1.124 0zM94.188 110.345l2.319 6.954 7.33.056c.568.004.803.729.346 1.067l-5.897 4.354 2.211 6.989c.171.542-.445.99-.907.659l-5.964-4.263-5.964 4.263c-.462.33-1.078-.118-.907-.659l2.211-6.989-5.897-4.354c-.457-.338-.222-1.063.346-1.067l7.33-.056 2.319-6.954c.183-.539.944-.539 1.124 0zM163.992 110.345l2.319 6.954 7.33.056c.568.004.803.729.346 1.067l-5.897 4.354 2.211 6.989c.171.542-.445.99-.907.659l-5.964-4.263-5.964 4.263c-.462.33-1.078-.118-.907-.659l2.211-6.989-5.897-4.354c-.457-.338-.222-1.063.346-1.067l7.33-.056 2.319-6.954c.183-.539.944-.539 1.124 0zM187.118 136.64l2.319 6.954 7.33.056c.568.004.803.729.346 1.067l-5.897 4.354 2.211 6.989c.171.542-.445.99-.907.659l-5.964-4.263-5.964 4.263c-.462.33-1.078-.118-.907-.659l2.211-6.989-5.897-4.354c-.457-.338-.222-1.063.346-1.067l7.33-.056 2.319-6.954c.183-.539.944-.539 1.124 0zM69.139 136.64l2.319 6.954 7.33.056c.568.004.803.729.346 1.067l-5.897 4.354 2.211 6.989c.171.542-.445.99-.907.659l-5.964-4.263-5.964 4.263c-.462.33-1.078-.118-.907-.659l2.211-6.989-5.897-4.354c-.457-.338-.222-1.063.346-1.067l7.33-.056 2.319-6.954c.181-.539.944-.539 1.124 0zM193.77 171.131l2.319 6.954 7.33.056c.568.004.803.729.346 1.067l-5.897 4.354 2.211 6.989c.171.542-.445.99-.907.659l-5.964-4.263-5.964 4.263c-.462.33-1.078-.118-.907-.659l2.211-6.989-5.897-4.354c-.457-.338-.222-1.063.346-1.067l7.33-.056 2.319-6.954c.181-.539.944-.539 1.124 0zM60.152 171.131l2.319 6.954 7.33.056c.568.004.803.729.346 1.067l-5.897 4.354 2.211 6.989c.171.542-.445.99-.907.659l-5.964-4.263-5.964 4.263c-.462.33-1.078-.118-.907-.659l2.211-6.989-5.897-4.354c-.457-.338-.222-1.063.346-1.067l7.33-.056 2.319-6.954c.182-.539.944-.539 1.124 0z"/></g></svg>