<svg xmlns="http://www.w3.org/2000/svg" viewBox="0 0 511.9 511.9"><path d="M473.7 423.65H38.3c-21.1 0-38.3-17.1-38.3-38.3v-258.8c0-21.2 17.2-38.3 38.3-38.3h435.3c21.2 0 38.3 17.2 38.3 38.3v258.8c.1 21.2-17.1 38.3-38.2 38.3z" fill="#3cc8ff"/><path d="M.1 124.45v122.6c0 4.9 4 8.8 8.8 8.8h238.3c4.9 0 8.8-4 8.8-8.8v-150c0-4.9-4-8.8-8.8-8.8H38.3c-20.4 0-37.2 16-38.2 36.2z" fill="#41479b"/><path d="M150.1 141.75v-53.5H106v53.6l-79.1-51.9c-9.2 2.9-17 9.2-21.7 17.4l65.1 42.6H.1v44.1h70.2l-70.2 46v7c0 4.9 4 8.8 8.8 8.8h15.3l81.8-53.6v53.7h44.1v-53.6l81.8 53.6h15.3c4.9 0 8.8-4 8.8-8.8v-7l-70.2-46H256v-44.1h-70.2l70.2-46v-7c0-4.9-4-8.8-8.8-8.8h-15.3l-81.8 53.5z" fill="#f5f5f5"/><g fill="#ff4b55"><path d="M256.1 158.85H141.3v-70.6h-26.5v70.6H.1v26.5h114.7v70.6h26.5v-70.6h114.8z"/><path d="M8.2 102.85l72.7 47.2h16.2l-82.5-53.6c-2.3 1.9-4.5 4-6.4 6.4zM166.3 150.05l88.4-57.4c-1.5-2.6-4.2-4.4-7.5-4.4h-1.9l-95.2 61.8h16.2zM89.5 194.15l-88.2 57.3c1.5 2.7 4.3 4.5 7.6 4.5h1.7l95.2-61.8H89.5zM255.9 247.85l-82.7-53.7H157l93.9 60.9c2.8-1.3 4.8-4 5-7.2z"/></g><g fill="#ffe15a"><path d="M284.4 362.75l4.3 12.9 13.6.1c1.8 0 2.5 2.3 1.1 3.3l-10.9 8.1 4.1 12.9c.5 1.7-1.4 3.1-2.8 2l-11-7.9-11 7.9c-1.4 1-3.3-.4-2.8-2l4.1-12.9-10.9-8.1c-1.4-1-.7-3.3 1.1-3.3l13.6-.1 4.3-12.9c.3-1.7 2.6-1.7 3.2 0zM409.4 265.55l4.3 12.9 13.6.1c1.8 0 2.5 2.3 1.1 3.3l-10.9 8.1 4.1 12.9c.5 1.7-1.4 3.1-2.8 2l-11-7.9-11 7.9c-1.4 1-3.3-.4-2.8-2l4.1-12.9-10.9-8.1c-1.4-1-.7-3.3 1.1-3.3l13.6-.1 4.3-12.9c.3-1.7 2.6-1.7 3.2 0zM468.3 229.35l4.3 12.9 13.6.1c1.8 0 2.5 2.3 1.1 3.3l-10.9 8.1 4.1 12.9c.5 1.7-1.4 3.1-2.8 2l-11-7.9-11 7.9c-1.4 1-3.3-.4-2.8-2l4.1-12.9-10.9-8.1c-1.4-1-.7-3.3 1.1-3.3l13.6-.1 4.3-12.9c.3-1.6 2.7-1.6 3.2 0zM454.3 105.45l4.3 12.9 13.6.1c1.8 0 2.5 2.3 1.1 3.3l-10.9 8.1 4.1 12.9c.5 1.7-1.4 3.1-2.8 2l-11-7.9-11 7.9c-1.4 1-3.3-.4-2.8-2l4.1-12.9-10.9-8.1c-1.4-1-.7-3.3 1.1-3.3l13.6-.1 4.3-12.9c.3-1.7 2.6-1.7 3.2 0zM336.6 394.95l-4.3-12.9-13.6-.1c-1.8 0-2.5-2.3-1.1-3.3l10.9-8.1-4.1-12.9c-.5-1.7 1.4-3.1 2.8-2l11 7.9 11-7.9c1.4-1 3.3.4 2.8 2l-4.1 12.9 10.9 8.1c1.4 1 .7 3.3-1.1 3.3l-13.6.1-4.3 12.9c-.2 1.6-2.6 1.6-3.2 0zM377.3 358.45l-4.3-12.9-13.6-.1c-1.8 0-2.5-2.3-1.1-3.3l10.9-8.1-4.1-12.9c-.5-1.7 1.4-3.1 2.8-2l11 7.9 11-7.9c1.4-1 3.3.4 2.8 2l-4.1 12.9 10.9 8.1c1.4 1 .7 3.3-1.1 3.3l-13.6.1-4.3 12.9c-.3 1.7-2.7 1.7-3.2 0zM413.8 199.45l-4.3-12.9-13.6-.1c-1.8 0-2.5-2.3-1.1-3.3l10.9-8.1-4.1-12.9c-.5-1.7 1.4-3.1 2.8-2l11 7.9 11-7.9c1.4-1 3.3.4 2.8 2l-4.1 12.9 10.9 8.1c1.4 1 .7 3.3-1.1 3.3l-13.6.1-4.3 12.9c-.3 1.7-2.6 1.7-3.2 0zM371.6 213.05l-4.3-12.9-13.6-.1c-1.8 0-2.5-2.3-1.1-3.3l10.9-8.1-4.1-12.9c-.5-1.7 1.4-3.1 2.8-2l11 7.9 11-7.9c1.4-1 3.3.4 2.8 2l-4.1 12.9 10.9 8.1c1.4 1 .7 3.3-1.1 3.3l-13.6.1-4.3 12.9c-.2 1.6-2.6 1.6-3.2 0zM344.6 318.15l-4.3-12.9-13.6-.1c-1.8 0-2.5-2.3-1.1-3.3l10.9-8.1-4.1-12.9c-.5-1.7 1.4-3.1 2.8-2l11 7.9 11-7.9c1.4-1 3.3.4 2.8 2l-4.1 12.9 11.1 8.2c1.4 1 .7 3.3-1.1 3.3l-13.6.1-4.3 12.9c-.5 1.6-2.8 1.6-3.4-.1z"/></g></svg>