<svg xmlns="http://www.w3.org/2000/svg" viewBox="0 0 512 512"><path d="M473.655 423.721H38.345C17.167 423.721 0 406.554 0 385.376V126.618c0-21.177 17.167-38.345 38.345-38.345h435.31c21.177 0 38.345 17.167 38.345 38.345v258.759c0 21.177-17.167 38.344-38.345 38.344z" fill="#73af00"/><path fill="#ff4b55" d="M70.62 88.277h88.28v335.45H70.62z"/><path fill="#f5f5f5" d="M150.068 126.526l-17.655 14.712H97.102l-17.655-14.712v-14.713L97.102 97.1h35.311l17.655 14.713z"/><g fill="#73af00"><path d="M150.068 250.112l-17.655 14.713H97.102l-17.655-14.713v-14.713l17.655-14.712h35.311l17.655 14.712zM150.068 188.319l-17.655 14.712H97.102l-17.655-14.712v-14.713l17.655-14.712h35.311l17.655 14.712zM150.068 311.905l-17.655 14.713H97.102l-17.655-14.713v-14.713l17.655-14.712h35.311l17.655 14.712z"/></g><g fill="#ffb400"><path d="M70.62 132.411l17.655 17.655-17.655 17.655zM158.895 167.721l-17.655-17.655 17.655-17.655zM70.62 194.204l17.655 17.655-17.655 17.655zM158.895 229.514l-17.655-17.655 17.655-17.655zM70.62 255.997l17.655 17.655-17.655 17.655zM158.895 291.307l-17.655-17.655 17.655-17.655zM70.62 317.79l17.655 17.655L70.62 353.1zM158.895 353.1l-17.655-17.655 17.655-17.655zM70.62 88.273h17.655L70.62 105.928zM158.895 105.928L141.24 88.273h17.655zM110.34 158.897h8.828v44.14h-8.828z"/></g><path fill="#ff4b55" d="M97.1 176.547h35.31v8.828H97.1z"/><g fill="#ffb400"><path d="M141.24 166.249l-8.827-7.355v44.137l8.827-7.356zM88.275 195.675l8.827 7.355v-44.136l-8.827 7.355zM114.758 97.1H97.102l-17.655 14.713v7.356h35.311zM114.758 141.238h17.654l17.656-14.712v-7.357h-35.31z"/></g><path fill="#ff4b55" d="M114.758 132.411l-17.656-13.19 17.656-13.293 17.655 13.293z"/><g fill="#73af00"><path d="M114.758 132.411l17.655-13.19-.07-.052h-17.585zM114.758 119.169v-13.241l-17.587 13.241z"/></g><path fill="#ff4b55" d="M97.1 229.517h35.31V256H97.1z"/><path fill="#ffb400" d="M132.41 238.337h8.828v8.828h-8.828z"/><path fill="#f5f5f5" d="M110.34 238.337h8.828v8.828h-8.828z"/><path fill="#ff4b55" d="M110.34 291.307h8.828v8.828h-8.828z"/><g fill="#ffb400"><path d="M123.59 300.137h8.828v8.828h-8.828zM97.1 300.137h8.828v8.828H97.1z"/></g><path fill="#ff4b55" d="M110.34 308.967h8.828v8.828h-8.828z"/><path fill="#ffb400" d="M88.28 238.337h8.828v8.828H88.28z"/><path fill="#f5f5f5" d="M150.068 373.699l-17.655 14.712H97.102l-17.655-14.712v-14.714l17.655-14.712h35.311l17.655 14.712z"/><g fill="#ffb400"><path d="M114.758 344.273H97.102l-17.655 14.712v7.357h35.311z"/><path d="M114.758 388.411h17.654l17.656-14.712v-7.357h-35.31z"/></g><path fill="#ff4b55" d="M132.413 370.756l-17.655 8.827-17.656-8.827v-8.828l17.656-8.828 17.655 8.828z"/><g fill="#f5f5f5"><path d="M280.009 136.34c-.94-.462-1.791.761-1.028 1.48 9.99 9.427 16.303 22.666 16.303 37.433 0 29.007-23.316 52.279-51.986 52.279a50.825 50.825 0 0 1-15.197-2.328c-.996-.311-1.641 1.025-.783 1.621 8.382 5.827 18.485 9.31 29.514 9.31 29.049 0 52.787-23.275 52.787-52.703 0-20.682-12.139-38.505-29.61-47.092zM208.171 170.399l-2.159 6.109 5.08 4.021c.658.521.275 1.579-.564 1.557l-6.477-.167-2.254 6.074c-.292.787-1.417.749-1.655-.055l-1.843-6.211-6.474-.267c-.839-.034-1.15-1.116-.459-1.591l5.338-3.672-1.747-6.24c-.226-.808.706-1.439 1.372-.928l5.142 3.942 5.395-3.59c.697-.464 1.585.228 1.305 1.018zM234.407 183.649l-2.159 6.109 5.08 4.021c.658.521.275 1.579-.564 1.557l-6.477-.167-2.254 6.074c-.292.787-1.417.749-1.655-.055l-1.843-6.211-6.474-.267c-.839-.034-1.15-1.116-.459-1.591l5.338-3.672-1.747-6.24c-.226-.808.706-1.439 1.372-.928l5.142 3.942 5.395-3.59c.696-.464 1.584.227 1.305 1.018zM234.142 156.355l-2.159 6.109 5.08 4.021c.658.521.275 1.579-.564 1.557l-6.477-.167-2.254 6.074c-.292.787-1.417.749-1.655-.055l-1.843-6.211-6.474-.267c-.839-.034-1.15-1.116-.459-1.591l5.338-3.672-1.747-6.24c-.226-.808.706-1.439 1.372-.928l5.142 3.942 5.395-3.59c.696-.466 1.584.226 1.305 1.018zM235.034 130.01l-2.159 6.109 5.08 4.021c.658.521.275 1.579-.564 1.557l-6.477-.167-2.254 6.074c-.292.787-1.417.749-1.655-.055l-1.843-6.211-6.474-.267c-.839-.034-1.15-1.116-.459-1.591l5.338-3.672-1.747-6.24c-.226-.808.706-1.439 1.372-.928l5.142 3.942 5.395-3.59c.697-.465 1.586.227 1.305 1.018zM260.739 143.259l-2.159 6.109 5.08 4.021c.658.521.275 1.579-.564 1.557l-6.477-.167-2.254 6.074c-.292.787-1.417.749-1.655-.055l-1.843-6.211-6.474-.267c-.839-.034-1.15-1.116-.459-1.591l5.338-3.672-1.747-6.24c-.226-.808.706-1.439 1.372-.928l5.142 3.942 5.395-3.59c.697-.464 1.586.228 1.305 1.018z"/></g></svg>