<svg xmlns="http://www.w3.org/2000/svg" viewBox="0 0 512 512"><path d="M473.655 88.276H38.345C17.167 88.276 0 105.443 0 126.621V385.38c0 21.177 17.167 38.345 38.345 38.345h435.31c21.177 0 38.345-17.167 38.345-38.345V126.621c0-21.178-17.167-38.345-38.345-38.345z" fill="#ff4b55"/><g fill="#ffe15a"><path d="M219.121 231.838c1.886-2.873 4.121-5.469 6.607-7.822l-.017.013L97.103 88.276H38.345a38.179 38.179 0 0 0-24.644 8.977l205.42 134.585zM212.318 260.522c-.156-1.508-.456-2.973-.456-4.522s.3-3.014.456-4.522v.002L0 229.517v52.966l212.318-21.964v.003zM249.14 212.553h-.001zM256 211.862c2.35 0 4.61.338 6.86.691l19.623-124.277h-52.966l19.623 124.277c2.25-.353 4.51-.691 6.86-.691zM262.861 212.553h-.001zM286.272 224.015c2.486 2.354 4.722 4.949 6.607 7.822L498.3 97.252c-6.665-5.599-15.258-8.977-24.644-8.977h-58.759L286.289 224.029c-.006-.005-.013-.008-.017-.014zM292.879 280.162c-1.886 2.873-4.121 5.469-6.607 7.822l.017-.013 128.608 135.753h58.759c9.386 0 17.98-3.378 24.644-8.977L292.879 280.162zM299.682 251.478c.156 1.507.456 2.973.456 4.522 0 1.549-.3 3.014-.456 4.522v-.002L512 282.483v-52.966l-212.318 21.964v-.003zM256 300.138c-2.35 0-4.61-.338-6.86-.691l-19.623 124.277h52.966L262.86 299.447c-2.25.353-4.51.691-6.86.691zM262.86 299.447h.001zM249.139 299.447h.001zM225.728 287.985c-2.486-2.354-4.722-4.949-6.607-7.822L13.7 414.748c6.665 5.599 15.258 8.977 24.644 8.977h58.759l128.608-135.753c.006.004.013.007.017.013z"/><circle cx="256" cy="256" r="35.31"/></g></svg>